<?xml version="1.0" encoding="utf-8"?>
<!-- Generator: Adobe Illustrator 20.1.0, SVG Export Plug-In . SVG Version: 6.00 Build 0)  -->
<svg version="1.1" id="Capa_1" xmlns="http://www.w3.org/2000/svg" xmlns:xlink="http://www.w3.org/1999/xlink" x="0px" y="0px"
	 viewBox="0 0 128 128" style="enable-background:new 0 0 128 128;" xml:space="preserve">
<style type="text/css">
	.st0{fill:#118262;}
</style>
<title>Recurso 1</title>
<path class="st0" d="M115.5,26.1c-0.4,0.6-0.9,1.2-1.4,1.7l-56,52.3c-1.6,1.5-3.7,2.3-5.7,2.3c-2.3,0-4.5-0.9-6.2-2.7
	c-3.2-3.4-3-8.7,0.4-11.9l56-52.3c0.5-0.5,1.1-0.9,1.6-1.2C93.3,5.3,79.3,0,64,0C28.7,0,0,28.7,0,64s28.7,64,64,64s64-28.7,64-64
	C128,49.8,123.4,36.7,115.5,26.1z M21.5,77.2c-2.3,0-4.5-0.9-6.2-2.7c-3.2-3.4-3-8.7,0.4-11.9l56-52.3c3.4-3.2,8.7-3,11.9,0.4
	c3.2,3.4,3,8.7-0.4,11.9l-56,52.3C25.7,76.5,23.6,77.2,21.5,77.2z M95.9,78.7l-39.7,37c-1.6,1.5-3.7,2.3-5.7,2.3
	c-2.3,0-4.5-0.9-6.2-2.7c-3.2-3.4-3-8.7,0.4-11.9l39.7-37c3.4-3.2,8.7-3,11.9,0.4C99.5,70.3,99.3,75.6,95.9,78.7z"/>
</svg>
